<?xml version="1.0" encoding="UTF-8" standalone="no"?>
<svg
   xmlns:dc="http://purl.org/dc/elements/1.1/"
   xmlns:cc="http://creativecommons.org/ns#"
   xmlns:rdf="http://www.w3.org/1999/02/22-rdf-syntax-ns#"
   xmlns:svg="http://www.w3.org/2000/svg"
   xmlns="http://www.w3.org/2000/svg"
   xmlns:sodipodi="http://sodipodi.sourceforge.net/DTD/sodipodi-0.dtd"
   xmlns:inkscape="http://www.inkscape.org/namespaces/inkscape"
   style="font-style:normal;font-weight:normal;font-size:12px;font-family:Dialog;color-interpolation:auto;fill:#000000;fill-opacity:1;stroke:#000000;stroke-width:1;stroke-linecap:square;stroke-linejoin:miter;stroke-miterlimit:10;stroke-dasharray:none;stroke-dashoffset:0;stroke-opacity:1;color-rendering:auto;image-rendering:auto;shape-rendering:auto;text-rendering:auto"
   id="svg5465"
   version="1.1"
   inkscape:version="0.91 r13725"
   sodipodi:docname="case-cracow.svg"
   width="920.87006"
   height="1025.522">
  <metadata
     id="metadata5608">
    <rdf:RDF>
      <cc:Work
         rdf:about="">
        <dc:format>image/svg+xml</dc:format>
        <dc:type
           rdf:resource="http://purl.org/dc/dcmitype/StillImage" />
        <dc:title></dc:title>
      </cc:Work>
    </rdf:RDF>
  </metadata>
  <sodipodi:namedview
     pagecolor="#ffffff"
     bordercolor="#666666"
     borderopacity="1"
     objecttolerance="10"
     gridtolerance="10"
     guidetolerance="10"
     inkscape:pageopacity="0"
     inkscape:pageshadow="2"
     inkscape:window-width="1920"
     inkscape:window-height="1053"
     id="namedview5606"
     showgrid="false"
     fit-margin-top="0"
     fit-margin-left="0"
     fit-margin-right="0"
     fit-margin-bottom="0"
     inkscape:zoom="0.64"
     inkscape:cx="128.7485"
     inkscape:cy="480.31752"
     inkscape:window-x="0"
     inkscape:window-y="27"
     inkscape:window-maximized="1"
     inkscape:current-layer="svg5465" />
  <!--Generated by the Batik Graphics2D SVG Generator-->
  <defs
     id="genericDefs" />
  <g
     id="g5678"
     transform="matrix(0.80791846,0.58929429,-0.58929429,0.80791846,-533.79381,498.87032)">
    <g
       transform="translate(0,-1000)"
       style="fill:#cccccc;fill-opacity:0.58819999;stroke:#cccccc;stroke-opacity:0.58819999;text-rendering:optimizeLegibility"
       id="g5478">
      <path
         d="m 458.2508,385.2655 0,-336.4889 323.9684,0 0,336.4889 z"
         style="fill-rule:evenodd;stroke:none"
         id="path5480"
         inkscape:connector-curvature="0" />
    </g>
    <g
       transform="translate(0,-1000)"
       style="fill:#8e8e8e;fill-opacity:0.58819999;stroke:#8e8e8e;stroke-linecap:butt;stroke-linejoin:bevel;stroke-opacity:0.58819999;text-rendering:optimizeLegibility"
       id="g5482">
      <path
         d="m 458.2508,385.2655 0,-336.4889 323.9684,0 0,336.4889 z"
         style="fill:none;fill-rule:evenodd"
         id="path5484"
         inkscape:connector-curvature="0" />
    </g>
    <g
       transform="translate(0,-1000)"
       style="fill:#cccccc;fill-opacity:0.58819999;stroke:#cccccc;stroke-opacity:0.58819999;text-rendering:optimizeLegibility"
       id="g5486">
      <path
         d="m 458.2508,721.7545 0,-336.489 323.9684,0 0,336.489 z"
         style="fill-rule:evenodd;stroke:none"
         id="path5488"
         inkscape:connector-curvature="0" />
    </g>
    <g
       transform="translate(0,-1000)"
       style="fill:#8e8e8e;fill-opacity:0.58819999;stroke:#8e8e8e;stroke-linecap:butt;stroke-linejoin:bevel;stroke-opacity:0.58819999;text-rendering:optimizeLegibility"
       id="g5490">
      <path
         d="m 458.2508,721.7545 0,-336.489 323.9684,0 0,336.489 z"
         style="fill:none;fill-rule:evenodd"
         id="path5492"
         inkscape:connector-curvature="0" />
    </g>
    <g
       transform="translate(0,-1000)"
       style="fill:#cccccc;fill-opacity:0.58819999;stroke:#cccccc;stroke-opacity:0.58819999;text-rendering:optimizeLegibility"
       id="g5494">
      <path
         d="m 782.2192,385.2655 0,-336.4889 323.9684,0 0,336.4889 z"
         style="fill-rule:evenodd;stroke:none"
         id="path5496"
         inkscape:connector-curvature="0" />
    </g>
    <g
       transform="translate(0,-1000)"
       style="fill:#8e8e8e;fill-opacity:0.58819999;stroke:#8e8e8e;stroke-linecap:butt;stroke-linejoin:bevel;stroke-opacity:0.58819999;text-rendering:optimizeLegibility"
       id="g5498">
      <path
         d="m 782.2192,385.2655 0,-336.4889 323.9684,0 0,336.4889 z"
         style="fill:none;fill-rule:evenodd"
         id="path5500"
         inkscape:connector-curvature="0" />
    </g>
    <g
       transform="translate(0,-1000)"
       style="fill:#cccccc;fill-opacity:0.58819999;stroke:#cccccc;stroke-opacity:0.58819999;text-rendering:optimizeLegibility"
       id="g5502">
      <path
         d="m 782.2192,721.7545 0,-336.489 323.9684,0 37.5617,431.9579 z"
         style="fill-rule:evenodd;stroke:none"
         id="path5504"
         inkscape:connector-curvature="0" />
    </g>
    <g
       transform="translate(0,-1000)"
       style="fill:#8e8e8e;fill-opacity:0.58819999;stroke:#8e8e8e;stroke-linecap:butt;stroke-linejoin:bevel;stroke-opacity:0.58819999;text-rendering:optimizeLegibility"
       id="g5506">
      <path
         d="m 782.2192,721.7545 0,-336.489 323.9684,0 37.5617,431.9579 z"
         style="fill:none;fill-rule:evenodd"
         id="path5508"
         inkscape:connector-curvature="0" />
    </g>
    <g
       transform="translate(0,-1000)"
       style="fill:#b40000;fill-opacity:0.58819999;stroke:#b40000;stroke-opacity:0.58819999;text-rendering:optimizeLegibility"
       id="g5510">
      <path
         d="m 711.7913,616.8951 0,-458.564 139.2908,0 0,458.564 z"
         style="fill-rule:evenodd;stroke:none"
         id="path5512"
         inkscape:connector-curvature="0" />
    </g>
    <g
       transform="translate(0,-1000)"
       style="fill:#7d0000;fill-opacity:0.58819999;stroke:#7d0000;stroke-linecap:butt;stroke-linejoin:bevel;stroke-opacity:0.58819999;text-rendering:optimizeLegibility"
       id="g5514">
      <path
         d="m 711.7913,616.8951 0,-458.564 139.2908,0 0,458.564 z"
         style="fill:none;fill-rule:evenodd"
         id="path5516"
         inkscape:connector-curvature="0" />
    </g>
    <g
       transform="translate(0,-1000)"
       style="fill:#b40000;fill-opacity:0.58819999;stroke:#b40000;stroke-opacity:0.58819999;text-rendering:optimizeLegibility"
       id="g5518">
      <path
         d="m 599.1376,563.9438 -0.5991,5.7009 -1.7714,5.4517 -2.8662,4.9643 -3.8356,4.2599 -4.6375,3.3693 -5.2367,2.3315 -5.607,1.1919 -5.7322,0 -5.6071,-1.1919 -5.2367,-2.3315 -4.6374,-3.3693 -3.8357,-4.2599 -2.8661,-4.9643 -1.7714,-5.4517 -0.5992,-5.7009 0.5992,-5.7009 1.7714,-5.4517 2.8661,-4.9643 3.8357,-4.2599 4.6374,-3.3694 5.2367,-2.3315 5.6071,-1.1918 5.7322,0 5.607,1.1918 5.2367,2.3315 4.6375,3.3694 3.8356,4.2599 2.8662,4.9643 1.7714,5.4517 z"
         style="fill-rule:evenodd;stroke:none"
         id="path5520"
         inkscape:connector-curvature="0" />
    </g>
    <g
       transform="translate(0,-1000)"
       style="fill:#7d0000;fill-opacity:0.58819999;stroke:#7d0000;stroke-linecap:butt;stroke-linejoin:bevel;stroke-opacity:0.58819999;text-rendering:optimizeLegibility"
       id="g5522">
      <path
         d="m 599.1376,563.9438 -0.5991,5.7009 -1.7714,5.4517 -2.8662,4.9643 -3.8356,4.2599 -4.6375,3.3693 -5.2367,2.3315 -5.607,1.1919 -5.7322,0 -5.6071,-1.1919 -5.2367,-2.3315 -4.6374,-3.3693 -3.8357,-4.2599 -2.8661,-4.9643 -1.7714,-5.4517 -0.5992,-5.7009 0.5992,-5.7009 1.7714,-5.4517 2.8661,-4.9643 3.8357,-4.2599 4.6374,-3.3694 5.2367,-2.3315 5.6071,-1.1918 5.7322,0 5.607,1.1918 5.2367,2.3315 4.6375,3.3694 3.8356,4.2599 2.8662,4.9643 1.7714,5.4517 z"
         style="fill:none;fill-rule:evenodd"
         id="path5524"
         inkscape:connector-curvature="0" />
    </g>
    <g
       transform="translate(0,-1000)"
       style="fill:#b40000;fill-opacity:0.58819999;stroke:#b40000;stroke-opacity:0.58819999;text-rendering:optimizeLegibility"
       id="g5526">
      <path
         d="m 1042.02,657.136 -0.9064,8.4126 -2.6793,8.045 -4.3352,7.3257 -5.8016,6.2861 -7.0146,4.9721 -7.9209,3.4406 -8.481,1.7587 -8.6704,0 -8.481,-1.7587 -7.9209,-3.4406 -7.0146,-4.9721 -5.8017,-6.2861 -4.3352,-7.3257 -2.6794,-8.045 -0.9063,-8.4126 0.9063,-8.4127 2.6794,-8.0449 4.3352,-7.3257 5.8017,-6.2862 7.0146,-4.9721 7.9209,-3.4405 8.481,-1.7588 8.6704,0 8.481,1.7588 7.9209,3.4405 7.0146,4.9721 5.8016,6.2862 4.3352,7.3257 2.6793,8.0449 z"
         style="fill-rule:evenodd;stroke:none"
         id="path5528"
         inkscape:connector-curvature="0" />
    </g>
    <g
       transform="translate(0,-1000)"
       style="fill:#7d0000;fill-opacity:0.58819999;stroke:#7d0000;stroke-linecap:butt;stroke-linejoin:bevel;stroke-opacity:0.58819999;text-rendering:optimizeLegibility"
       id="g5530">
      <path
         d="m 1042.02,657.136 -0.9064,8.4126 -2.6793,8.045 -4.3352,7.3257 -5.8016,6.2861 -7.0146,4.9721 -7.9209,3.4406 -8.481,1.7587 -8.6704,0 -8.481,-1.7587 -7.9209,-3.4406 -7.0146,-4.9721 -5.8017,-6.2861 -4.3352,-7.3257 -2.6794,-8.045 -0.9063,-8.4126 0.9063,-8.4127 2.6794,-8.0449 4.3352,-7.3257 5.8017,-6.2862 7.0146,-4.9721 7.9209,-3.4405 8.481,-1.7588 8.6704,0 8.481,1.7588 7.9209,3.4405 7.0146,4.9721 5.8016,6.2862 4.3352,7.3257 2.6793,8.0449 z"
         style="fill:none;fill-rule:evenodd"
         id="path5532"
         inkscape:connector-curvature="0" />
    </g>
    <g
       transform="translate(0,-1000)"
       style="fill:#b40000;fill-opacity:0.58819999;stroke:#b40000;stroke-opacity:0.58819999;text-rendering:optimizeLegibility"
       id="g5534">
      <path
         d="m 1084.2767,271.0158 0,-151.8113 21.9109,0 0,151.8113 z"
         style="fill-rule:evenodd;stroke:none"
         id="path5536"
         inkscape:connector-curvature="0" />
    </g>
    <g
       transform="translate(0,-1000)"
       style="fill:#7d0000;fill-opacity:0.58819999;stroke:#7d0000;stroke-linecap:butt;stroke-linejoin:bevel;stroke-opacity:0.58819999;text-rendering:optimizeLegibility"
       id="g5538">
      <path
         d="m 1084.2767,271.0158 0,-151.8113 21.9109,0 0,151.8113 z"
         style="fill:none;fill-rule:evenodd"
         id="path5540"
         inkscape:connector-curvature="0" />
    </g>
    <g
       transform="translate(0,-1000)"
       style="fill:#b40000;fill-opacity:0.58819999;stroke:#b40000;stroke-opacity:0.58819999;text-rendering:optimizeLegibility"
       id="g5542">
      <path
         d="m 929.3353,195.8927 0,-64.1677 67.2978,0 0,64.1677 z"
         style="fill-rule:evenodd;stroke:none"
         id="path5544"
         inkscape:connector-curvature="0" />
    </g>
    <g
       transform="translate(0,-1000)"
       style="fill:#7d0000;fill-opacity:0.58819999;stroke:#7d0000;stroke-linecap:butt;stroke-linejoin:bevel;stroke-opacity:0.58819999;text-rendering:optimizeLegibility"
       id="g5546">
      <path
         d="m 929.3353,195.8927 0,-64.1677 67.2978,0 0,64.1677 z"
         style="fill:none;fill-rule:evenodd"
         id="path5548"
         inkscape:connector-curvature="0" />
    </g>
    <g
       transform="translate(0,-1000)"
       style="fill:#b40000;fill-opacity:0.58819999;stroke:#b40000;stroke-opacity:0.58819999;text-rendering:optimizeLegibility"
       id="g5550">
      <path
         d="m 994.006,389.4576 -0.6037,4.586 -1.7701,4.2734 -2.8159,3.6697 -3.6696,2.8159 -4.2735,1.7701 -4.5859,0.6037 -4.586,-0.6037 -4.2734,-1.7701 -3.6697,-2.8159 -2.8158,-3.6697 -1.7702,-4.2734 -0.6037,-4.586 0.6037,-4.5859 1.7702,-4.2734 2.8158,-3.6697 3.6697,-2.8158 4.2734,-1.7701 4.586,-0.6038 4.5859,0.6038 4.2735,1.7701 3.6696,2.8158 2.8159,3.6697 1.7701,4.2734 z"
         style="fill-rule:evenodd;stroke:none"
         id="path5552"
         inkscape:connector-curvature="0" />
    </g>
    <g
       transform="translate(0,-1000)"
       style="fill:#7d0000;fill-opacity:0.58819999;stroke:#7d0000;stroke-linecap:butt;stroke-linejoin:bevel;stroke-opacity:0.58819999;text-rendering:optimizeLegibility"
       id="g5554">
      <path
         d="m 994.006,389.4576 -0.6037,4.586 -1.7701,4.2734 -2.8159,3.6697 -3.6696,2.8159 -4.2735,1.7701 -4.5859,0.6037 -4.586,-0.6037 -4.2734,-1.7701 -3.6697,-2.8159 -2.8158,-3.6697 -1.7702,-4.2734 -0.6037,-4.586 0.6037,-4.5859 1.7702,-4.2734 2.8158,-3.6697 3.6697,-2.8158 4.2734,-1.7701 4.586,-0.6038 4.5859,0.6038 4.2735,1.7701 3.6696,2.8158 2.8159,3.6697 1.7701,4.2734 z"
         style="fill:none;fill-rule:evenodd"
         id="path5556"
         inkscape:connector-curvature="0" />
    </g>
    <g
       transform="translate(0,-1000)"
       style="fill:#b40000;fill-opacity:0.58819999;stroke:#b40000;stroke-opacity:0.58819999;text-rendering:optimizeLegibility"
       id="g5558">
      <path
         d="m 547.4595,169.2866 0,-20.3459 18.7807,0 0,20.3459 z"
         style="fill-rule:evenodd;stroke:none"
         id="path5560"
         inkscape:connector-curvature="0" />
    </g>
    <g
       transform="translate(0,-1000)"
       style="fill:#7d0000;fill-opacity:0.58819999;stroke:#7d0000;stroke-linecap:butt;stroke-linejoin:bevel;stroke-opacity:0.58819999;text-rendering:optimizeLegibility"
       id="g5562">
      <path
         d="m 547.4595,169.2866 0,-20.3459 18.7807,0 0,20.3459 z"
         style="fill:none;fill-rule:evenodd"
         id="path5564"
         inkscape:connector-curvature="0" />
    </g>
    <g
       transform="translate(0,-1000)"
       style="fill:#b40000;fill-opacity:0.58819999;stroke:#b40000;stroke-opacity:0.58819999;text-rendering:optimizeLegibility"
       id="g5566">
      <path
         d="m 646.0586,125.4647 0,-18.7807 255.1056,0 0,18.7807 z"
         style="fill-rule:evenodd;stroke:none"
         id="path5568"
         inkscape:connector-curvature="0" />
    </g>
    <g
       transform="translate(0,-1000)"
       style="fill:#7d0000;fill-opacity:0.58819999;stroke:#7d0000;stroke-linecap:butt;stroke-linejoin:bevel;stroke-opacity:0.58819999;text-rendering:optimizeLegibility"
       id="g5570">
      <path
         d="m 646.0586,125.4647 0,-18.7807 255.1056,0 0,18.7807 z"
         style="fill:none;fill-rule:evenodd"
         id="path5572"
         inkscape:connector-curvature="0" />
    </g>
    <g
       transform="translate(0,-1000)"
       style="fill:#b40000;fill-opacity:0.58819999;stroke:#b40000;stroke-opacity:0.58819999;text-rendering:optimizeLegibility"
       id="g5574">
      <path
         d="m 553.7197,394.6559 0,-17.2157 20.3459,0 0,17.2157 z"
         style="fill-rule:evenodd;stroke:none"
         id="path5576"
         inkscape:connector-curvature="0" />
    </g>
    <g
       transform="translate(0,-1000)"
       style="fill:#7d0000;fill-opacity:0.58819999;stroke:#7d0000;stroke-linecap:butt;stroke-linejoin:bevel;stroke-opacity:0.58819999;text-rendering:optimizeLegibility"
       id="g5578">
      <path
         d="m 553.7197,394.6559 0,-17.2157 20.3459,0 0,17.2157 z"
         style="fill:none;fill-rule:evenodd"
         id="path5580"
         inkscape:connector-curvature="0" />
    </g>
    <g
       transform="translate(0,-1000)"
       style="fill:#b40000;fill-opacity:0.58819999;stroke:#b40000;stroke-opacity:0.58819999;text-rendering:optimizeLegibility"
       id="g5582">
      <path
         d="m 771.2638,693.5833 0,-23.4759 21.9109,0 0,23.4759 z"
         style="fill-rule:evenodd;stroke:none"
         id="path5584"
         inkscape:connector-curvature="0" />
    </g>
    <g
       transform="translate(0,-1000)"
       style="fill:#7d0000;fill-opacity:0.58819999;stroke:#7d0000;stroke-linecap:butt;stroke-linejoin:bevel;stroke-opacity:0.58819999;text-rendering:optimizeLegibility"
       id="g5586">
      <path
         d="m 771.2638,693.5833 0,-23.4759 21.9109,0 0,23.4759 z"
         style="fill:none;fill-rule:evenodd"
         id="path5588"
         inkscape:connector-curvature="0" />
    </g>
    <g
       transform="translate(0,-1000)"
       style="fill:#b40000;fill-opacity:0.58819999;stroke:#b40000;stroke-opacity:0.58819999;text-rendering:optimizeLegibility"
       id="g5590">
      <path
         d="m 722.7468,626.2855 0,-17.2157 20.3458,0 0,17.2157 z"
         style="fill-rule:evenodd;stroke:none"
         id="path5592"
         inkscape:connector-curvature="0" />
    </g>
  </g>
</svg>
