<?xml version="1.0" encoding="UTF-8" standalone="no"?>
<!-- Created with Inkscape (http://www.inkscape.org/) -->
<svg
   xmlns:dc="http://purl.org/dc/elements/1.1/"
   xmlns:cc="http://web.resource.org/cc/"
   xmlns:rdf="http://www.w3.org/1999/02/22-rdf-syntax-ns#"
   xmlns:svg="http://www.w3.org/2000/svg"
   xmlns="http://www.w3.org/2000/svg"
   xmlns:sodipodi="http://inkscape.sourceforge.net/DTD/sodipodi-0.dtd"
   xmlns:inkscape="http://www.inkscape.org/namespaces/inkscape"
   version="1.0"
   width="210mm"
   height="241.88998pt"
   id="svg2"
   sodipodi:version="0.32"
   inkscape:version="0.43"
   sodipodi:docname="tr.svg"
   sodipodi:docbase="D:\wiki">
  <metadata
     id="metadata1312">
    <rdf:RDF>
      <cc:Work
         rdf:about="">
        <dc:format>image/svg+xml</dc:format>
        <dc:type
           rdf:resource="http://purl.org/dc/dcmitype/StillImage" />
      </cc:Work>
    </rdf:RDF>
  </metadata>
  <sodipodi:namedview
     inkscape:window-height="742"
     inkscape:window-width="1024"
     inkscape:pageshadow="2"
     inkscape:pageopacity="0.0"
     borderopacity="1.0"
     bordercolor="#666666"
     pagecolor="#ffffff"
     id="base"
     inkscape:zoom="1.3575566"
     inkscape:cx="392.14051"
     inkscape:cy="56.602076"
     inkscape:window-x="-4"
     inkscape:window-y="-4"
     inkscape:current-layer="svg2" />
  <defs
     id="defs5" />
  <path
     d="M 49.008438,242.82542 L 221.74513,12.479218 L 735.27258,13.227095 L 563.83662,243.324"
     style="fill:#7f7fff;fill-opacity:1;fill-rule:evenodd;stroke:#000000;stroke-width:1.00000012px;stroke-linecap:butt;stroke-linejoin:miter;stroke-opacity:1"
     id="path1355" />
  <path
     d="M 49.103455,242.82542 L 15.257752,288.94452 L 529.4521,289.19381 L 563.81851,243.324 L 49.103455,242.82542 z "
     style="fill:#ffeb7f;fill-opacity:1;fill-rule:evenodd;stroke:#000000;stroke-width:1.00000012px;stroke-linecap:butt;stroke-linejoin:miter;stroke-opacity:1"
     id="path1353" />
  <path
     style="fill:none;fill-opacity:0.75;fill-rule:evenodd;stroke:#000000;stroke-width:1.00000036;stroke-linecap:butt;stroke-linejoin:miter;stroke-miterlimit:4;stroke-dasharray:3.00000105, 1.00000035;stroke-dashoffset:0;stroke-opacity:1"
     d="M 57.583414,273.98883 L 345.29028,79.050731 L 509.05808,274.97836"
     id="path1316" />
  <path
     style="fill:none;fill-opacity:0.75;fill-rule:evenodd;stroke:#d61313;stroke-width:1.00000036px;stroke-linecap:butt;stroke-linejoin:miter;stroke-opacity:1"
     d="M 211.12119,265.82518 L 223.82504,265.82518 L 217.01337,275.77062"
     id="path3066"
     sodipodi:nodetypes="ccc" />
  <path
     style="fill:none;fill-opacity:0.75;fill-rule:evenodd;stroke:#d61313;stroke-width:1.00000036px;stroke-linecap:butt;stroke-linejoin:miter;stroke-opacity:1"
     d="M 203.78699,275.72051 L 345.53766,79.298108"
     id="path2191" />
  <path
     style="fill:none;fill-opacity:0.75;fill-rule:evenodd;stroke:#000000;stroke-width:1.00000036px;stroke-linecap:butt;stroke-linejoin:miter;stroke-opacity:1"
     d="M 55.604347,275.9679 L 510.295,275.9679"
     id="path1314" />
  <path
     style="font-size:29.21364975px;font-style:normal;font-variant:normal;font-weight:normal;font-stretch:normal;text-align:start;line-height:125%;writing-mode:lr-tb;text-anchor:start;fill:#000000;fill-opacity:1;stroke:none;stroke-width:1px;stroke-linecap:butt;stroke-linejoin:miter;stroke-opacity:1;font-family:Symbol"
     d="M 110.18969,255.52529 L 112.55759,255.52529 L 110.70321,262.01563 C 110.57957,262.42455 110.38463,263.06645 110.11837,263.94133 C 110.47972,265.40582 110.75075,266.28071 110.93144,266.566 C 111.27378,267.08903 111.70647,267.35054 112.22951,267.35054 C 112.60988,267.35054 112.96174,267.19364 113.28508,266.87982 C 113.60839,266.566 113.82236,266.07625 113.92698,265.41057 L 114.49756,265.41057 C 114.36441,266.77997 114.07437,267.72618 113.62743,268.24921 C 113.18997,268.77224 112.6812,269.03375 112.10113,269.03375 C 111.55907,269.03375 111.06456,268.80552 110.61763,268.34906 C 110.18017,267.89259 109.78552,266.9131 109.43367,265.41057 C 109.01524,266.23792 108.60632,266.86555 108.20693,267.29349 C 107.64585,267.88308 107.03723,268.32053 106.38108,268.60582 C 105.7249,268.90062 104.97839,269.04802 104.14155,269.04802 C 102.03991,269.04802 100.4946,268.34906 99.505597,266.95114 C 98.516592,265.55322 98.02209,263.96036 98.022092,262.17254 C 98.02209,260.08042 98.602179,258.38771 99.762358,257.09438 C 100.92253,255.79157 102.28241,255.14016 103.842,255.14015 C 104.92609,255.14016 105.88181,255.473 106.70916,256.13866 C 107.53649,256.79484 108.28775,258.02159 108.96295,259.8189 L 110.18969,255.52529 M 108.46369,261.41652 C 107.95016,259.45754 107.28924,258.09291 106.48093,257.32262 C 105.6726,256.54284 104.85001,256.15294 104.01317,256.15293 C 103.08122,256.15294 102.30618,256.66646 101.68806,257.69349 C 101.06993,258.71103 100.76087,260.33718 100.76087,262.57194 C 100.76087,263.89379 100.894,264.9351 101.16028,265.69586 C 101.42654,266.44713 101.82595,267.03197 102.35849,267.45039 C 102.90054,267.85931 103.47112,268.06377 104.07023,268.06377 C 104.80247,268.06377 105.47289,267.72618 106.08152,267.05099 C 106.90885,266.13807 107.70291,264.25991 108.46369,261.41652"
     id="text4814" />
  <path
     style="font-size:29.21364975px;font-style:normal;font-variant:normal;font-weight:normal;font-stretch:normal;text-align:start;line-height:125%;writing-mode:lr-tb;text-anchor:start;fill:#000000;fill-opacity:1;stroke:none;stroke-width:1px;stroke-linecap:butt;stroke-linejoin:miter;stroke-opacity:1;font-family:Symbol"
     d="M 471.88858,265.89592 L 471.88858,268.30661 C 471.88858,269.84717 471.69838,271.51612 471.318,273.31344 L 468.90731,273.31344 C 469.16407,272.13424 469.31622,271.33068 469.36377,270.90275 C 469.48739,269.57139 469.54921,268.59666 469.54921,267.97853 L 469.54921,253.40023 C 469.54921,251.69802 469.71562,250.43799 470.04846,249.62015 C 470.39081,248.79283 470.99943,248.10338 471.87432,247.5518 C 472.75871,247.00026 473.81428,246.72448 475.04103,246.72446 C 476.74325,246.72448 478.10313,247.18094 479.12067,248.09385 C 480.13819,249.00679 480.64696,250.09089 480.64697,251.34615 C 480.64696,252.15448 480.43775,252.92476 480.01933,253.65699 C 479.61041,254.37974 478.97326,255.00738 478.10789,255.53991 C 480.65647,256.75715 481.93076,258.64957 481.93077,261.21717 C 481.93076,262.35833 481.66449,263.42341 481.13196,264.41241 C 480.59941,265.40142 479.86717,266.15743 478.93523,266.68046 C 478.00328,267.19398 477.0428,267.45074 476.05381,267.45074 C 475.41665,267.45074 474.78426,267.34138 474.15663,267.12266 C 473.5385,266.90394 472.78248,266.49502 471.88858,265.89592 M 471.88858,264.76902 C 472.81101,265.41568 473.61458,265.88165 474.29928,266.16694 C 474.81279,266.37615 475.32631,266.48076 475.83984,266.48076 C 476.80031,266.48076 477.60387,266.08611 478.25054,265.29681 C 478.90669,264.498 479.23478,263.23797 479.23479,261.51672 C 479.23478,260.43263 479.07787,259.48642 478.76406,258.67809 C 478.45974,257.86027 477.91769,256.96636 477.13791,255.99637 C 476.48173,256.2151 475.91591,256.32446 475.44044,256.32445 C 474.86985,256.32446 474.46569,256.23888 474.22796,256.06769 C 473.99972,255.89653 473.8856,255.71109 473.88561,255.51138 C 473.8856,255.3307 473.97594,255.16904 474.15663,255.02638 C 474.33731,254.88375 474.62735,254.81243 475.02677,254.81242 C 475.49273,254.81243 476.19645,254.93605 477.13791,255.18329 C 477.80358,253.86146 478.13641,252.61095 478.13642,251.43174 C 478.13641,250.23354 477.84161,249.30635 477.25203,248.65016 C 476.66242,247.99402 475.93018,247.66593 475.0553,247.66591 C 473.95217,247.66593 473.0963,248.13191 472.48769,249.06383 C 472.08828,249.68198 471.88858,250.67573 471.88858,252.04511 L 471.88858,264.76902"
     id="text4818" />
  <text
     xml:space="preserve"
     style="font-size:29.21364975px;font-style:italic;font-variant:normal;font-weight:bold;font-stretch:normal;text-align:start;line-height:125%;writing-mode:lr-tb;text-anchor:start;fill:#000000;fill-opacity:1;stroke:none;stroke-width:1px;stroke-linecap:butt;stroke-linejoin:miter;stroke-opacity:1;font-family:Times New Roman"
     x="263.9505"
     y="269.08438"
     id="text4822"
     sodipodi:linespacing="125%"><tspan
       sodipodi:role="line"
       id="tspan4824"
       x="263.9505"
       y="269.08438">l</tspan></text>
  <text
     xml:space="preserve"
     style="font-size:29.21364975px;font-style:italic;font-variant:normal;font-weight:bold;font-stretch:normal;text-align:start;line-height:125%;writing-mode:lr-tb;text-anchor:start;fill:#d61313;fill-opacity:1;stroke:none;stroke-width:1px;stroke-linecap:butt;stroke-linejoin:miter;stroke-opacity:1;font-family:Times New Roman"
     x="271.38522"
     y="198.24968"
     id="text4826"
     sodipodi:linespacing="125%"><tspan
       sodipodi:role="line"
       id="tspan4828"
       x="271.38522"
       y="198.24968">d</tspan></text>
  <text
     xml:space="preserve"
     style="font-size:29.21364975px;font-style:italic;font-variant:normal;font-weight:bold;font-stretch:normal;text-align:start;line-height:125%;writing-mode:lr-tb;text-anchor:start;fill:#d61313;fill-opacity:1;stroke:none;stroke-width:1px;stroke-linecap:butt;stroke-linejoin:miter;stroke-opacity:1;font-family:Times New Roman"
     x="286.66492"
     y="198.50688"
     id="text4830"
     sodipodi:linespacing="125%"><tspan
       sodipodi:role="line"
       id="tspan4832"
       x="286.66492"
       y="198.50688">?</tspan></text>
  <g
     id="g8333"
     transform="matrix(1.043345,0,0,1.043345,-23.55833,-48.44109)">
    <path
       sodipodi:nodetypes="ccc"
       id="path4836"
       d="M 373.92712,104.77269 L 354.04445,71.414129 L 360.44587,105.48222"
       style="fill:#333333;fill-opacity:1;fill-rule:evenodd;stroke:none;stroke-width:1px;stroke-linecap:butt;stroke-linejoin:miter;stroke-opacity:1" />
    <path
       id="path5711"
       d="M 339.51447,106.54653 L 354.06002,71.424347 L 361.15541,107.96561"
       style="fill:#7f7f7f;fill-opacity:1;fill-rule:evenodd;stroke:none;stroke-width:1px;stroke-linecap:butt;stroke-linejoin:miter;stroke-opacity:1" />
    <path
       id="path4834"
       d="M 328.51661,102.99884 L 328.51661,109.38469 L 335.25723,121.44686 L 372.86281,121.80162 L 385.63451,102.99884 L 328.51661,102.99884 z "
       style="fill:#000000;fill-opacity:1;fill-rule:evenodd;stroke:#000000;stroke-width:0.95845604px;stroke-linecap:butt;stroke-linejoin:miter;stroke-opacity:1" />
  </g>
</svg>
